<?xml version="1.0" encoding="UTF-8"?>
<svg xmlns="http://www.w3.org/2000/svg" xmlns:xlink="http://www.w3.org/1999/xlink" width="8px" height="8px" viewBox="0 0 8 8" version="1.1">
<defs>
<linearGradient id="linear0" gradientUnits="userSpaceOnUse" x1="127.999001" y1="0.992" x2="127.999001" y2="252.658997" gradientTransform="matrix(0.03125,0,0,0.03125,0,0)">
<stop offset="0" style="stop-color:rgb(94.509804%,32.941176%,32.941176%);stop-opacity:1;"/>
<stop offset="1" style="stop-color:rgb(85.098039%,23.137255%,23.137255%);stop-opacity:1;"/>
</linearGradient>
<filter id="alpha" filterUnits="objectBoundingBox" x="0%" y="0%" width="100%" height="100%">
  <feColorMatrix type="matrix" in="SourceGraphic" values="0 0 0 0 1 0 0 0 0 1 0 0 0 0 1 0 0 0 1 0"/>
</filter>
<mask id="mask0">
  <g filter="url(#alpha)">
<rect x="0" y="0" width="8" height="8" style="fill:rgb(0%,0%,0%);fill-opacity:0.2;stroke:none;"/>
  </g>
</mask>
<clipPath id="clip1">
  <rect x="0" y="0" width="8" height="8"/>
</clipPath>
<g id="surface5" clip-path="url(#clip1)">
<path style=" stroke:none;fill-rule:nonzero;fill:rgb(84.705883%,84.705883%,84.705883%);fill-opacity:1;" d="M 4 7.867188 C 1.8125 7.867188 0.0351562 6.113281 0 3.933594 C 0 3.957031 0 3.976562 0 4 C 0 6.210938 1.789062 8 4 8 C 6.210938 8 8 6.210938 8 4 C 8 3.976562 8 3.957031 8 3.933594 C 7.964844 6.113281 6.1875 7.867188 4 7.867188 Z M 4 7.867188 "/>
</g>
<mask id="mask1">
  <g filter="url(#alpha)">
<rect x="0" y="0" width="8" height="8" style="fill:rgb(0%,0%,0%);fill-opacity:0.101961;stroke:none;"/>
  </g>
</mask>
<clipPath id="clip2">
  <rect x="0" y="0" width="8" height="8"/>
</clipPath>
<g id="surface8" clip-path="url(#clip2)">
<path style=" stroke:none;fill-rule:nonzero;fill:rgb(17.254902%,17.254902%,17.254902%);fill-opacity:1;" d="M 4.992188 4.066406 L 6.136719 2.917969 C 6.320312 2.738281 6.320312 2.441406 6.136719 2.261719 L 5.777344 1.902344 C 5.597656 1.722656 5.300781 1.722656 5.121094 1.902344 L 3.972656 3.050781 L 2.828125 1.902344 C 2.648438 1.722656 2.351562 1.722656 2.171875 1.902344 L 1.808594 2.261719 C 1.628906 2.441406 1.628906 2.738281 1.808594 2.917969 L 2.957031 4.066406 L 1.808594 5.214844 C 1.628906 5.394531 1.628906 5.6875 1.808594 5.867188 L 2.171875 6.230469 C 2.351562 6.410156 2.648438 6.410156 2.828125 6.230469 L 3.972656 5.082031 L 5.121094 6.230469 C 5.300781 6.410156 5.597656 6.410156 5.777344 6.230469 L 6.136719 5.867188 C 6.320312 5.6875 6.320312 5.394531 6.136719 5.214844 Z M 4.992188 4.066406 "/>
</g>
<mask id="mask2">
  <g filter="url(#alpha)">
<rect x="0" y="0" width="8" height="8" style="fill:rgb(0%,0%,0%);fill-opacity:0.2;stroke:none;"/>
  </g>
</mask>
<clipPath id="clip3">
  <rect x="0" y="0" width="8" height="8"/>
</clipPath>
<g id="surface11" clip-path="url(#clip3)">
<path style=" stroke:none;fill-rule:nonzero;fill:rgb(17.254902%,17.254902%,17.254902%);fill-opacity:1;" d="M 2.914062 3.933594 L 2.957031 3.886719 L 1.808594 2.742188 C 1.734375 2.664062 1.6875 2.566406 1.675781 2.457031 C 1.664062 2.589844 1.710938 2.726562 1.808594 2.828125 Z M 6.136719 2.828125 C 6.238281 2.726562 6.285156 2.589844 6.273438 2.457031 C 6.261719 2.566406 6.214844 2.664062 6.136719 2.742188 L 4.992188 3.886719 L 5.035156 3.933594 Z M 6.136719 5.691406 L 5.777344 6.050781 C 5.597656 6.234375 5.300781 6.234375 5.121094 6.050781 L 3.972656 4.90625 L 2.828125 6.050781 C 2.648438 6.234375 2.351562 6.234375 2.171875 6.050781 L 1.808594 5.691406 C 1.734375 5.617188 1.6875 5.515625 1.675781 5.410156 C 1.664062 5.542969 1.710938 5.679688 1.808594 5.78125 L 2.171875 6.140625 C 2.351562 6.320312 2.648438 6.320312 2.828125 6.140625 L 3.972656 4.992188 L 5.121094 6.140625 C 5.300781 6.320312 5.597656 6.320312 5.777344 6.140625 L 6.136719 5.78125 C 6.238281 5.679688 6.285156 5.542969 6.273438 5.410156 C 6.261719 5.515625 6.214844 5.617188 6.136719 5.691406 Z M 6.136719 5.691406 "/>
</g>
</defs>
<g id="surface1">
<path style=" stroke:none;fill-rule:nonzero;fill:url(#linear0);" d="M 8 4 C 8 1.789062 6.210938 0 4 0 C 1.789062 0 0 1.789062 0 4 C 0 6.210938 1.789062 8 4 8 C 6.210938 8 8 6.210938 8 4 Z M 8 4 "/>
<use xlink:href="#surface5" mask="url(#mask0)"/>
<use xlink:href="#surface8" mask="url(#mask1)"/>
<path style=" stroke:none;fill-rule:nonzero;fill:rgb(98.039216%,98.039216%,98.039216%);fill-opacity:1;" d="M 4.992188 3.976562 L 6.136719 2.828125 C 6.320312 2.648438 6.320312 2.355469 6.136719 2.175781 L 5.777344 1.8125 C 5.597656 1.632812 5.300781 1.632812 5.121094 1.8125 L 3.972656 2.960938 L 2.828125 1.8125 C 2.648438 1.632812 2.351562 1.632812 2.171875 1.8125 L 1.808594 2.175781 C 1.628906 2.355469 1.628906 2.648438 1.808594 2.828125 L 2.957031 3.976562 L 1.808594 5.125 C 1.628906 5.304688 1.628906 5.601562 1.808594 5.78125 L 2.171875 6.140625 C 2.351562 6.320312 2.648438 6.320312 2.828125 6.140625 L 3.972656 4.992188 L 5.121094 6.140625 C 5.300781 6.320312 5.597656 6.320312 5.777344 6.140625 L 6.136719 5.78125 C 6.320312 5.601562 6.320312 5.304688 6.136719 5.125 Z M 4.992188 3.976562 "/>
<use xlink:href="#surface11" mask="url(#mask2)"/>
</g>
</svg>
